<svg xmlns="http://www.w3.org/2000/svg" width="1344" height="1208" viewBox="0 0 1344 1208" role="img" aria-label="Kraai compression and throat experiments">
<rect width="1344" height="1208" fill="#eee"/><text x="24" y="47" font-family="sans-serif" font-size="27" fill="#222">kraai / compression and throat</text><g transform="translate(24 80)"><rect width="636" height="262" rx="9" fill="white"/><text x="22" y="34" font-family="sans-serif" font-size="18" fill="#222">0  Current reference / Straight</text><g transform="translate(100 88) scale(.49)" color="#111"><g fill="currentColor"><g transform="translate(346 70) scale(1.311764705882) translate(-346 -70)"><path d="M99.363800 164.364843L174.000000 22.000000C186.072322 -1.027354 216.318673 -4.446688 238.000000 8.000000L346 70H270C250 70 241.126809 84.531747 249 104L304 240 163.977053 152.151208A44.546414 44.546414 0 0 0 114.442425 153.614342L99.363800 164.364843Z"/><path d="M8 240L119.403830 160.573195A36 36 0 0 1 159.435035 159.390770L224.8 200.4Z"/></g><ns0:g xmlns:ns0="http://www.w3.org/2000/svg" transform="translate(378 70)"><ns0:path d="M0 0H40V123L101 62H152L79 136L154 223H103L59 169L40 188V223H0Z" />
<ns0:path d="M160 62H199V87C211 66 228 59 250 59C257 59 263 60 267 61V100C258 97 248 97 241 98C214 102 199 121 199 153V223H160Z" />
<ns0:path fill-rule="evenodd" transform="translate(273 0)" d="M109 223L107 205C94 220 75 226 52 226C20 226 0 209 0 182C0 153 19 138 55 132L108 124V116C108 99 100 88 78 88C55 88 43 97 41 110H2C6 76 32 60 78 60C126 60 150 81 150 118V223ZM108 151L65 158C46 161 40 168 40 180C40 193 50 199 66 199C91 199 108 183 108 162Z" />
<ns0:path fill-rule="evenodd" transform="translate(438 0)" d="M109 223L107 205C94 220 75 226 52 226C20 226 0 209 0 182C0 153 19 138 55 132L108 124V116C108 99 100 88 78 88C55 88 43 97 41 110H2C6 76 32 60 78 60C126 60 150 81 150 118V223ZM108 151L65 158C46 161 40 168 40 180C40 193 50 199 66 199C91 199 108 183 108 162Z" />
<ns0:path d="M606 0H646V36H606ZM606 62H646V223H606Z" /></ns0:g></g></g></g><g transform="translate(24 362)"><rect width="636" height="262" rx="9" fill="white"/><text x="22" y="34" font-family="sans-serif" font-size="18" fill="#222">1  Experiment 1, compressed right / Straight</text><g transform="translate(100 88) scale(.49)" color="#111"><g fill="currentColor"><g transform="translate(346 70) scale(1.311764705882) translate(-346 -70)"><g transform="translate(346 0) scale(.9 1) translate(-346 0)"><path d="M99.363800 164.364843L192.000000 22.000000C206.180354 0.207397 235.412310 -6.182631 256.000000 8.000000L346 70H270C250 70 241.126809 84.531747 249 104L304.000000 240.000000 163.977053 152.151208A44.546414 44.546414 0 0 0 114.442425 153.614342L99.363800 164.364843Z"/><path d="M8 240L119.403830 160.573195A36 36 0 0 1 159.435035 159.390770L224.8 200.4Z"/></g></g><ns0:g xmlns:ns0="http://www.w3.org/2000/svg" transform="translate(378 70)"><ns0:path d="M0 0H40V123L101 62H152L79 136L154 223H103L59 169L40 188V223H0Z" />
<ns0:path d="M160 62H199V87C211 66 228 59 250 59C257 59 263 60 267 61V100C258 97 248 97 241 98C214 102 199 121 199 153V223H160Z" />
<ns0:path fill-rule="evenodd" transform="translate(273 0)" d="M109 223L107 205C94 220 75 226 52 226C20 226 0 209 0 182C0 153 19 138 55 132L108 124V116C108 99 100 88 78 88C55 88 43 97 41 110H2C6 76 32 60 78 60C126 60 150 81 150 118V223ZM108 151L65 158C46 161 40 168 40 180C40 193 50 199 66 199C91 199 108 183 108 162Z" />
<ns0:path fill-rule="evenodd" transform="translate(438 0)" d="M109 223L107 205C94 220 75 226 52 226C20 226 0 209 0 182C0 153 19 138 55 132L108 124V116C108 99 100 88 78 88C55 88 43 97 41 110H2C6 76 32 60 78 60C126 60 150 81 150 118V223ZM108 151L65 158C46 161 40 168 40 180C40 193 50 199 66 199C91 199 108 183 108 162Z" />
<ns0:path d="M606 0H646V36H606ZM606 62H646V223H606Z" /></ns0:g></g></g></g><g transform="translate(24 644)"><rect width="636" height="262" rx="9" fill="white"/><text x="22" y="34" font-family="sans-serif" font-size="18" fill="#222">2  Reference throat shifted left / Straight</text><g transform="translate(100 88) scale(.49)" color="#111"><g fill="currentColor"><g transform="translate(346 70) scale(1.311764705882) translate(-346 -70)"><path d="M99.363800 164.364843L174.000000 22.000000C186.072322 -1.027354 216.318673 -4.446688 238.000000 8.000000L346 70L258 70C238 70 227.719490 85.161950 237 104L304 240 163.977053 152.151208A44.546414 44.546414 0 0 0 114.442425 153.614342L99.363800 164.364843Z"/><path d="M8 240L119.403830 160.573195A36 36 0 0 1 159.435035 159.390770L224.8 200.4Z"/></g><ns0:g xmlns:ns0="http://www.w3.org/2000/svg" transform="translate(378 70)"><ns0:path d="M0 0H40V123L101 62H152L79 136L154 223H103L59 169L40 188V223H0Z" />
<ns0:path d="M160 62H199V87C211 66 228 59 250 59C257 59 263 60 267 61V100C258 97 248 97 241 98C214 102 199 121 199 153V223H160Z" />
<ns0:path fill-rule="evenodd" transform="translate(273 0)" d="M109 223L107 205C94 220 75 226 52 226C20 226 0 209 0 182C0 153 19 138 55 132L108 124V116C108 99 100 88 78 88C55 88 43 97 41 110H2C6 76 32 60 78 60C126 60 150 81 150 118V223ZM108 151L65 158C46 161 40 168 40 180C40 193 50 199 66 199C91 199 108 183 108 162Z" />
<ns0:path fill-rule="evenodd" transform="translate(438 0)" d="M109 223L107 205C94 220 75 226 52 226C20 226 0 209 0 182C0 153 19 138 55 132L108 124V116C108 99 100 88 78 88C55 88 43 97 41 110H2C6 76 32 60 78 60C126 60 150 81 150 118V223ZM108 151L65 158C46 161 40 168 40 180C40 193 50 199 66 199C91 199 108 183 108 162Z" />
<ns0:path d="M606 0H646V36H606ZM606 62H646V223H606Z" /></ns0:g></g></g></g><g transform="translate(24 926)"><rect width="636" height="262" rx="9" fill="white"/><text x="22" y="34" font-family="sans-serif" font-size="18" fill="#222">3  Reference throat shifted down / Straight</text><g transform="translate(100 88) scale(.49)" color="#111"><g fill="currentColor"><g transform="translate(346 70) scale(1.311764705882) translate(-346 -70)"><path d="M99.363800 164.364843L174.000000 22.000000C186.072322 -1.027354 216.318673 -4.446688 238.000000 8.000000L346 70L270 82C250 82 240.485458 96.803579 249 116L304 240 163.977053 152.151208A44.546414 44.546414 0 0 0 114.442425 153.614342L99.363800 164.364843Z"/><path d="M8 240L119.403830 160.573195A36 36 0 0 1 159.435035 159.390770L224.8 200.4Z"/></g><ns0:g xmlns:ns0="http://www.w3.org/2000/svg" transform="translate(378 70)"><ns0:path d="M0 0H40V123L101 62H152L79 136L154 223H103L59 169L40 188V223H0Z" />
<ns0:path d="M160 62H199V87C211 66 228 59 250 59C257 59 263 60 267 61V100C258 97 248 97 241 98C214 102 199 121 199 153V223H160Z" />
<ns0:path fill-rule="evenodd" transform="translate(273 0)" d="M109 223L107 205C94 220 75 226 52 226C20 226 0 209 0 182C0 153 19 138 55 132L108 124V116C108 99 100 88 78 88C55 88 43 97 41 110H2C6 76 32 60 78 60C126 60 150 81 150 118V223ZM108 151L65 158C46 161 40 168 40 180C40 193 50 199 66 199C91 199 108 183 108 162Z" />
<ns0:path fill-rule="evenodd" transform="translate(438 0)" d="M109 223L107 205C94 220 75 226 52 226C20 226 0 209 0 182C0 153 19 138 55 132L108 124V116C108 99 100 88 78 88C55 88 43 97 41 110H2C6 76 32 60 78 60C126 60 150 81 150 118V223ZM108 151L65 158C46 161 40 168 40 180C40 193 50 199 66 199C91 199 108 183 108 162Z" />
<ns0:path d="M606 0H646V36H606ZM606 62H646V223H606Z" /></ns0:g></g></g></g><g transform="translate(684 80)"><rect width="636" height="262" rx="9" fill="white"/><text x="22" y="34" font-family="sans-serif" font-size="18" fill="#222">0  Current reference / Curved</text><g transform="translate(100 88) scale(.49)" color="#111"><g fill="currentColor"><g transform="translate(346 70) scale(1.311764705882) translate(-346 -70)"><path d="M99.363800 164.364843L174.000000 22.000000C186.072322 -1.027354 216.318673 -4.446688 238.000000 8.000000L346 70H270C250 70 241.126809 84.531747 249 104L304 240 163.977053 152.151208A44.546414 44.546414 0 0 0 114.442425 153.614342L99.363800 164.364843Z"/><path d="M8 240L119.403830 160.573195A36 36 0 0 1 159.435035 159.390770L234 206.171974C158.666667 210.781953 83.333333 222.057643 8 240Z"/></g><ns0:g xmlns:ns0="http://www.w3.org/2000/svg" transform="translate(378 70)"><ns0:path d="M0 0H40V123L101 62H152L79 136L154 223H103L59 169L40 188V223H0Z" />
<ns0:path d="M160 62H199V87C211 66 228 59 250 59C257 59 263 60 267 61V100C258 97 248 97 241 98C214 102 199 121 199 153V223H160Z" />
<ns0:path fill-rule="evenodd" transform="translate(273 0)" d="M109 223L107 205C94 220 75 226 52 226C20 226 0 209 0 182C0 153 19 138 55 132L108 124V116C108 99 100 88 78 88C55 88 43 97 41 110H2C6 76 32 60 78 60C126 60 150 81 150 118V223ZM108 151L65 158C46 161 40 168 40 180C40 193 50 199 66 199C91 199 108 183 108 162Z" />
<ns0:path fill-rule="evenodd" transform="translate(438 0)" d="M109 223L107 205C94 220 75 226 52 226C20 226 0 209 0 182C0 153 19 138 55 132L108 124V116C108 99 100 88 78 88C55 88 43 97 41 110H2C6 76 32 60 78 60C126 60 150 81 150 118V223ZM108 151L65 158C46 161 40 168 40 180C40 193 50 199 66 199C91 199 108 183 108 162Z" />
<ns0:path d="M606 0H646V36H606ZM606 62H646V223H606Z" /></ns0:g></g></g></g><g transform="translate(684 362)"><rect width="636" height="262" rx="9" fill="white"/><text x="22" y="34" font-family="sans-serif" font-size="18" fill="#222">1  Experiment 1, compressed right / Curved</text><g transform="translate(100 88) scale(.49)" color="#111"><g fill="currentColor"><g transform="translate(346 70) scale(1.311764705882) translate(-346 -70)"><g transform="translate(346 0) scale(.9 1) translate(-346 0)"><path d="M99.363800 164.364843L192.000000 22.000000C206.180354 0.207397 235.412310 -6.182631 256.000000 8.000000L346 70H270C250 70 241.126809 84.531747 249 104L304.000000 240.000000 163.977053 152.151208A44.546414 44.546414 0 0 0 114.442425 153.614342L99.363800 164.364843Z"/><path d="M8 240L119.403830 160.573195A36 36 0 0 1 159.435035 159.390770L234 206.171974C158.666667 210.781953 83.333333 222.057643 8 240Z"/></g></g><ns0:g xmlns:ns0="http://www.w3.org/2000/svg" transform="translate(378 70)"><ns0:path d="M0 0H40V123L101 62H152L79 136L154 223H103L59 169L40 188V223H0Z" />
<ns0:path d="M160 62H199V87C211 66 228 59 250 59C257 59 263 60 267 61V100C258 97 248 97 241 98C214 102 199 121 199 153V223H160Z" />
<ns0:path fill-rule="evenodd" transform="translate(273 0)" d="M109 223L107 205C94 220 75 226 52 226C20 226 0 209 0 182C0 153 19 138 55 132L108 124V116C108 99 100 88 78 88C55 88 43 97 41 110H2C6 76 32 60 78 60C126 60 150 81 150 118V223ZM108 151L65 158C46 161 40 168 40 180C40 193 50 199 66 199C91 199 108 183 108 162Z" />
<ns0:path fill-rule="evenodd" transform="translate(438 0)" d="M109 223L107 205C94 220 75 226 52 226C20 226 0 209 0 182C0 153 19 138 55 132L108 124V116C108 99 100 88 78 88C55 88 43 97 41 110H2C6 76 32 60 78 60C126 60 150 81 150 118V223ZM108 151L65 158C46 161 40 168 40 180C40 193 50 199 66 199C91 199 108 183 108 162Z" />
<ns0:path d="M606 0H646V36H606ZM606 62H646V223H606Z" /></ns0:g></g></g></g><g transform="translate(684 644)"><rect width="636" height="262" rx="9" fill="white"/><text x="22" y="34" font-family="sans-serif" font-size="18" fill="#222">2  Reference throat shifted left / Curved</text><g transform="translate(100 88) scale(.49)" color="#111"><g fill="currentColor"><g transform="translate(346 70) scale(1.311764705882) translate(-346 -70)"><path d="M99.363800 164.364843L174.000000 22.000000C186.072322 -1.027354 216.318673 -4.446688 238.000000 8.000000L346 70L258 70C238 70 227.719490 85.161950 237 104L304 240 163.977053 152.151208A44.546414 44.546414 0 0 0 114.442425 153.614342L99.363800 164.364843Z"/><path d="M8 240L119.403830 160.573195A36 36 0 0 1 159.435035 159.390770L234 206.171974C158.666667 210.781953 83.333333 222.057643 8 240Z"/></g><ns0:g xmlns:ns0="http://www.w3.org/2000/svg" transform="translate(378 70)"><ns0:path d="M0 0H40V123L101 62H152L79 136L154 223H103L59 169L40 188V223H0Z" />
<ns0:path d="M160 62H199V87C211 66 228 59 250 59C257 59 263 60 267 61V100C258 97 248 97 241 98C214 102 199 121 199 153V223H160Z" />
<ns0:path fill-rule="evenodd" transform="translate(273 0)" d="M109 223L107 205C94 220 75 226 52 226C20 226 0 209 0 182C0 153 19 138 55 132L108 124V116C108 99 100 88 78 88C55 88 43 97 41 110H2C6 76 32 60 78 60C126 60 150 81 150 118V223ZM108 151L65 158C46 161 40 168 40 180C40 193 50 199 66 199C91 199 108 183 108 162Z" />
<ns0:path fill-rule="evenodd" transform="translate(438 0)" d="M109 223L107 205C94 220 75 226 52 226C20 226 0 209 0 182C0 153 19 138 55 132L108 124V116C108 99 100 88 78 88C55 88 43 97 41 110H2C6 76 32 60 78 60C126 60 150 81 150 118V223ZM108 151L65 158C46 161 40 168 40 180C40 193 50 199 66 199C91 199 108 183 108 162Z" />
<ns0:path d="M606 0H646V36H606ZM606 62H646V223H606Z" /></ns0:g></g></g></g><g transform="translate(684 926)"><rect width="636" height="262" rx="9" fill="white"/><text x="22" y="34" font-family="sans-serif" font-size="18" fill="#222">3  Reference throat shifted down / Curved</text><g transform="translate(100 88) scale(.49)" color="#111"><g fill="currentColor"><g transform="translate(346 70) scale(1.311764705882) translate(-346 -70)"><path d="M99.363800 164.364843L174.000000 22.000000C186.072322 -1.027354 216.318673 -4.446688 238.000000 8.000000L346 70L270 82C250 82 240.485458 96.803579 249 116L304 240 163.977053 152.151208A44.546414 44.546414 0 0 0 114.442425 153.614342L99.363800 164.364843Z"/><path d="M8 240L119.403830 160.573195A36 36 0 0 1 159.435035 159.390770L234 206.171974C158.666667 210.781953 83.333333 222.057643 8 240Z"/></g><ns0:g xmlns:ns0="http://www.w3.org/2000/svg" transform="translate(378 70)"><ns0:path d="M0 0H40V123L101 62H152L79 136L154 223H103L59 169L40 188V223H0Z" />
<ns0:path d="M160 62H199V87C211 66 228 59 250 59C257 59 263 60 267 61V100C258 97 248 97 241 98C214 102 199 121 199 153V223H160Z" />
<ns0:path fill-rule="evenodd" transform="translate(273 0)" d="M109 223L107 205C94 220 75 226 52 226C20 226 0 209 0 182C0 153 19 138 55 132L108 124V116C108 99 100 88 78 88C55 88 43 97 41 110H2C6 76 32 60 78 60C126 60 150 81 150 118V223ZM108 151L65 158C46 161 40 168 40 180C40 193 50 199 66 199C91 199 108 183 108 162Z" />
<ns0:path fill-rule="evenodd" transform="translate(438 0)" d="M109 223L107 205C94 220 75 226 52 226C20 226 0 209 0 182C0 153 19 138 55 132L108 124V116C108 99 100 88 78 88C55 88 43 97 41 110H2C6 76 32 60 78 60C126 60 150 81 150 118V223ZM108 151L65 158C46 161 40 168 40 180C40 193 50 199 66 199C91 199 108 183 108 162Z" />
<ns0:path d="M606 0H646V36H606ZM606 62H646V223H606Z" /></ns0:g></g></g></g>
</svg>
